<svg width="17" height="17" viewBox="0 0 17 17" fill="none" xmlns="http://www.w3.org/2000/svg">
<path d="M12.0729 14.9125C13.1135 14.7267 14.1772 14.6325 15.2343 14.6325C15.5879 14.6325 15.9335 14.6671 16.2683 14.7324C16.3593 14.1194 16.4062 13.501 16.4062 12.8906C16.4062 11.0164 15.9534 9.42725 15.0968 8.29485C14.2518 7.17773 13.0521 6.56254 11.7187 6.56254C10.8685 6.56254 10.0654 6.8145 9.37496 7.29445V5.39067C9.37496 4.22757 10.3212 3.28131 11.4843 3.28131C11.8726 3.28131 12.1875 2.9665 12.1875 2.57819C12.1875 2.18987 11.8726 1.87506 11.4843 1.87506C10.504 1.87506 9.61656 2.2788 8.97831 2.92825C8.77445 2.38305 8.46747 1.83077 8.00589 1.36919C6.5194 -0.117351 4.09227 -0.00124168 3.98966 0.0041958C3.63182 0.023977 3.34607 0.309726 3.32638 0.667568C3.32071 0.77013 3.20483 3.19731 4.69133 4.68375C5.68939 5.68181 7.11091 5.95734 7.96872 6.02906V7.29449C7.27825 6.81454 6.4752 6.56254 5.62498 6.56254C4.29158 6.56254 3.09187 7.17773 2.24685 8.29485C1.39026 9.4273 0.9375 11.0164 0.9375 12.8906C0.9375 14.1983 1.16236 15.5633 1.55925 16.79L12.0729 14.9125Z" fill="#8FDA38"/>
</svg>
