<svg width="10" height="11" viewBox="0 0 10 11" fill="none" xmlns="http://www.w3.org/2000/svg">
<path opacity="0.4" d="M9.24976 9.24874C7.83508 7.83411 5.91574 7.25956 4.06878 7.46923L4.2778 7.26022C5.20751 6.3312 5.71976 5.04768 5.71976 3.73345C5.71976 2.41852 5.20751 1.13499 4.2778 0.20598C4.00316 -0.0686599 3.55817 -0.0686599 3.28353 0.20598L2.28927 1.20024C0.441936 3.04823 0.39225 6.09552 2.10252 8.02568C1.48542 8.31509 0.896248 8.68437 0.380859 9.18335C0.452765 9.4593 0.497436 9.74196 0.512248 10.0323C0.8107 10.0477 1.10081 10.0951 1.38384 10.1705C3.30904 8.33417 6.36537 8.35217 8.2555 10.243C8.53014 10.5176 8.97512 10.5176 9.24976 10.243C9.5244 9.96836 9.5244 9.52338 9.24976 9.24874Z" fill="#8FDA38"/>
</svg>
