<svg width="69" height="97" viewBox="0 0 69 97" fill="none" xmlns="http://www.w3.org/2000/svg">
<g filter="url(#filter0_d_1074_21538)">
<mask id="path-1-inside-1_1074_21538" fill="white">
<path fill-rule="evenodd" clip-rule="evenodd" d="M41.4145 30.5858C42.1955 31.3668 42.1955 32.6332 41.4145 33.4142C38.3335 36.4952 37.2008 39.074 36.2998 42.0779C46.7787 42.9894 55 51.7846 55 62.5C55 73.8218 45.8218 83 34.5 83C23.1782 83 14 73.8218 14 62.5C14 51.9907 21.908 43.3285 32.098 42.1392C32.2194 41.7085 32.3451 41.2775 32.4786 40.8459C28.2249 39.2743 25.0744 35.4261 24.5059 30.7799C25.2037 30.6131 25.9321 30.5247 26.6811 30.5247C30.196 30.5247 33.2563 32.4705 34.8438 35.3438C35.761 33.794 36.9576 32.2142 38.586 30.5858C39.3671 29.8047 40.6334 29.8047 41.4145 30.5858Z"/>
</mask>
<path fill-rule="evenodd" clip-rule="evenodd" d="M41.4145 30.5858C42.1955 31.3668 42.1955 32.6332 41.4145 33.4142C38.3335 36.4952 37.2008 39.074 36.2998 42.0779C46.7787 42.9894 55 51.7846 55 62.5C55 73.8218 45.8218 83 34.5 83C23.1782 83 14 73.8218 14 62.5C14 51.9907 21.908 43.3285 32.098 42.1392C32.2194 41.7085 32.3451 41.2775 32.4786 40.8459C28.2249 39.2743 25.0744 35.4261 24.5059 30.7799C25.2037 30.6131 25.9321 30.5247 26.6811 30.5247C30.196 30.5247 33.2563 32.4705 34.8438 35.3438C35.761 33.794 36.9576 32.2142 38.586 30.5858C39.3671 29.8047 40.6334 29.8047 41.4145 30.5858Z" fill="url(#paint0_linear_1074_21538)"/>
<path d="M41.4145 33.4142L40.3538 32.3536V32.3536L41.4145 33.4142ZM41.4145 30.5858L40.3538 31.6464L40.3538 31.6464L41.4145 30.5858ZM36.2998 42.0779L34.863 41.647L34.3335 43.4126L36.1698 43.5723L36.2998 42.0779ZM32.098 42.1392L32.2719 43.6291L33.2695 43.5127L33.5418 42.546L32.098 42.1392ZM32.4786 40.8459L33.9116 41.2892L34.3317 39.9314L32.9984 39.4388L32.4786 40.8459ZM24.5059 30.7799L24.157 29.321L22.8543 29.6325L23.017 30.9621L24.5059 30.7799ZM34.8438 35.3438L33.5308 36.0692L34.799 38.3644L36.1346 36.1078L34.8438 35.3438ZM38.586 30.5858L39.6467 31.6464L39.6467 31.6464L38.586 30.5858ZM42.4751 34.4749C43.842 33.108 43.842 30.892 42.4751 29.5251L40.3538 31.6464C40.5491 31.8417 40.5491 32.1583 40.3538 32.3536L42.4751 34.4749ZM37.7366 42.5089C38.5858 39.6773 39.6124 37.3376 42.4751 34.4749L40.3538 32.3536C37.0546 35.6527 35.8157 38.4707 34.863 41.647L37.7366 42.5089ZM36.1698 43.5723C45.8804 44.4169 53.5 52.5695 53.5 62.5H56.5C56.5 50.9998 47.6771 41.5619 36.4298 40.5836L36.1698 43.5723ZM53.5 62.5C53.5 72.9934 44.9934 81.5 34.5 81.5V84.5C46.6503 84.5 56.5 74.6503 56.5 62.5H53.5ZM34.5 81.5C24.0066 81.5 15.5 72.9934 15.5 62.5H12.5C12.5 74.6503 22.3497 84.5 34.5 84.5V81.5ZM15.5 62.5C15.5 52.7608 22.8291 44.7312 32.2719 43.6291L31.9242 40.6493C20.987 41.9258 12.5 51.2207 12.5 62.5H15.5ZM31.0456 40.4025C30.9073 40.8495 30.778 41.2931 30.6543 41.7324L33.5418 42.546C33.6608 42.1238 33.7828 41.7055 33.9116 41.2892L31.0456 40.4025ZM23.017 30.9621C23.6552 36.1775 27.1894 40.4908 31.9588 42.2529L32.9984 39.4388C29.2605 38.0578 26.4936 34.6747 25.9948 30.5977L23.017 30.9621ZM26.6811 29.0247C25.8137 29.0247 24.9683 29.1271 24.157 29.321L24.8547 32.2388C25.4391 32.0991 26.0505 32.0247 26.6811 32.0247V29.0247ZM36.1567 34.6184C34.3159 31.2866 30.7637 29.0247 26.6811 29.0247V32.0247C29.6282 32.0247 32.1968 33.6545 33.5308 36.0692L36.1567 34.6184ZM37.5254 29.5251C35.8111 31.2394 34.5363 32.9183 33.5529 34.5797L36.1346 36.1078C36.9858 34.6697 38.1042 33.189 39.6467 31.6464L37.5254 29.5251ZM42.4751 29.5251C41.1083 28.1583 38.8922 28.1583 37.5254 29.5251L39.6467 31.6464C39.842 31.4512 40.1586 31.4512 40.3538 31.6464L42.4751 29.5251Z" fill="url(#paint1_linear_1074_21538)" fill-opacity="0.8" mask="url(#path-1-inside-1_1074_21538)"/>
</g>
<defs>
<filter id="filter0_d_1074_21538" x="-16" y="0" width="101" height="113" filterUnits="userSpaceOnUse" color-interpolation-filters="sRGB">
<feFlood flood-opacity="0" result="BackgroundImageFix"/>
<feColorMatrix in="SourceAlpha" type="matrix" values="0 0 0 0 0 0 0 0 0 0 0 0 0 0 0 0 0 0 127 0" result="hardAlpha"/>
<feOffset/>
<feGaussianBlur stdDeviation="15"/>
<feComposite in2="hardAlpha" operator="out"/>
<feColorMatrix type="matrix" values="0 0 0 0 0.411765 0 0 0 0 0.733333 0 0 0 0 0.227451 0 0 0 0.4 0"/>
<feBlend mode="normal" in2="BackgroundImageFix" result="effect1_dropShadow_1074_21538"/>
<feBlend mode="normal" in="SourceGraphic" in2="effect1_dropShadow_1074_21538" result="shape"/>
</filter>
<linearGradient id="paint0_linear_1074_21538" x1="35" y1="17.0427" x2="35" y2="86.1112" gradientUnits="userSpaceOnUse">
<stop stop-color="#8FDA38"/>
<stop offset="1" stop-color="#439C3B"/>
</linearGradient>
<linearGradient id="paint1_linear_1074_21538" x1="6.29009" y1="57.4882" x2="79.1458" y2="57.4882" gradientUnits="userSpaceOnUse">
<stop stop-color="#8FDA38"/>
<stop offset="1" stop-color="#439C3B"/>
</linearGradient>
</defs>
</svg>
