<svg width="20" height="20" viewBox="0 0 20 20" fill="none" xmlns="http://www.w3.org/2000/svg">
<path d="M18.3087 15.275C18.3087 15.575 18.242 15.8834 18.1003 16.1834C17.9587 16.4834 17.7753 16.7667 17.5337 17.0334C17.1253 17.4834 16.6753 17.8084 16.167 18.0167C15.667 18.225 15.1253 18.3334 14.542 18.3334C13.692 18.3334 12.7837 18.1334 11.8253 17.725C10.867 17.3167 9.90866 16.7667 8.95866 16.075C8.00033 15.375 7.09199 14.6 6.22533 13.7417C5.36699 12.875 4.59199 11.9667 3.90033 11.0167C3.21699 10.0667 2.66699 9.11669 2.26699 8.17502C1.86699 7.22502 1.66699 6.31669 1.66699 5.45002C1.66699 4.88335 1.76699 4.34169 1.96699 3.84169C2.16699 3.33335 2.48366 2.86669 2.92533 2.45002C3.45866 1.92502 4.04199 1.66669 4.65866 1.66669C4.89199 1.66669 5.12533 1.71669 5.33366 1.81669C5.55033 1.91669 5.74199 2.06669 5.89199 2.28335L7.82533 5.00835C7.97533 5.21669 8.08366 5.40835 8.15866 5.59169C8.23366 5.76669 8.27533 5.94169 8.27533 6.10002C8.27533 6.30002 8.21699 6.50002 8.10033 6.69169C7.99199 6.88335 7.83366 7.08335 7.63366 7.28335L7.00033 7.94169C6.90866 8.03335 6.86699 8.14169 6.86699 8.27502C6.86699 8.34169 6.87533 8.40002 6.89199 8.46669C6.91699 8.53335 6.94199 8.58335 6.95866 8.63335C7.10866 8.90835 7.36699 9.26669 7.73366 9.70002C8.10866 10.1334 8.50866 10.575 8.94199 11.0167C9.39199 11.4584 9.82533 11.8667 10.267 12.2417C10.7003 12.6084 11.0587 12.8584 11.342 13.0084C11.3837 13.025 11.4337 13.05 11.492 13.075C11.5587 13.1 11.6253 13.1084 11.7003 13.1084C11.842 13.1084 11.9503 13.0584 12.042 12.9667L12.6753 12.3417C12.8837 12.1334 13.0837 11.975 13.2753 11.875C13.467 11.7584 13.6587 11.7 13.867 11.7C14.0253 11.7 14.192 11.7334 14.3753 11.8084C14.5587 11.8834 14.7503 11.9917 14.9587 12.1334L17.717 14.0917C17.9337 14.2417 18.0837 14.4167 18.1753 14.625C18.2587 14.8334 18.3087 15.0417 18.3087 15.275Z" stroke="#E2E2E2" stroke-width="1.5" stroke-miterlimit="10"/>
<path d="M15.4167 7.50004C15.4167 7.00004 15.025 6.23337 14.4417 5.60837C13.9083 5.03337 13.2 4.58337 12.5 4.58337" stroke="#E2E2E2" stroke-width="1.5" stroke-linecap="round" stroke-linejoin="round"/>
<path d="M18.3333 7.50002C18.3333 4.27502 15.725 1.66669 12.5 1.66669" stroke="#E2E2E2" stroke-width="1.5" stroke-linecap="round" stroke-linejoin="round"/>
</svg>
