<svg width="24" height="24" viewBox="0 0 24 24" fill="none" xmlns="http://www.w3.org/2000/svg">
<path d="M20.2036 14.2825C20.596 13.8939 20.5991 13.2607 20.2105 12.8683C19.8218 12.4759 19.1887 12.4729 18.7963 12.8615L20.2036 14.2825ZM12 21L11.2963 21.7105C11.686 22.0965 12.3139 22.0965 12.7036 21.7105L12 21ZM5.20364 12.8615C4.81124 12.4729 4.17808 12.4759 3.78945 12.8683C3.40081 13.2607 3.40386 13.8939 3.79627 14.2825L5.20364 12.8615ZM3.80255 14.2887C4.19837 14.6738 4.83147 14.6652 5.21664 14.2694C5.6018 13.8736 5.59317 13.2405 5.19735 12.8553L3.80255 14.2887ZM12 7.006L11.1974 7.60252C11.3854 7.85558 11.6819 8.00512 11.9972 8.006C12.3125 8.00687 12.6097 7.85899 12.7992 7.60698L12 7.006ZM18.7992 12.8646C18.4052 13.2516 18.3995 13.8847 18.7865 14.2787C19.1735 14.6727 19.8067 14.6784 20.2007 14.2914L18.7992 12.8646ZM18.7963 12.8615L11.2963 20.2895L12.7036 21.7105L20.2036 14.2825L18.7963 12.8615ZM12.7036 20.2895L5.20364 12.8615L3.79627 14.2825L11.2963 21.7105L12.7036 20.2895ZM5.19735 12.8553C4.11839 11.8054 3.72034 10.2386 4.16734 8.80095L2.25753 8.20712C1.58703 10.3635 2.18411 12.7138 3.80255 14.2887L5.19735 12.8553ZM4.16734 8.80095C4.61434 7.36334 5.83068 6.29848 7.31476 6.04548L6.97867 4.07392C4.75254 4.45342 2.92803 6.05071 2.25753 8.20712L4.16734 8.80095ZM7.31476 6.04548C8.79885 5.79248 10.2993 6.39421 11.1974 7.60252L12.8026 6.40948C11.4555 4.59702 9.2048 3.69443 6.97867 4.07392L7.31476 6.04548ZM12.7992 7.60698C13.701 6.40761 15.1983 5.81387 16.677 6.06923L17.0173 4.0984C14.7993 3.71536 12.5534 4.60597 11.2007 6.40502L12.7992 7.60698ZM16.677 6.06923C18.1557 6.32459 19.3671 7.38609 19.8144 8.81846L21.7235 8.22224C21.0525 6.0737 19.2354 4.48145 17.0173 4.0984L16.677 6.06923ZM19.8144 8.81846C20.2618 10.2508 19.8698 11.8131 18.7992 12.8646L20.2007 14.2914C21.8065 12.7142 22.3945 10.3708 21.7235 8.22224L19.8144 8.81846Z" fill="#0C161D"/>
</svg>
