<svg width="154" height="78" viewBox="0 0 154 78" fill="none" xmlns="http://www.w3.org/2000/svg">
<path d="M84.6671 46.0295C75.5988 49.0721 66.0778 45.1154 63.4015 37.1922C60.7254 29.2691 65.907 20.3798 74.9751 17.3374C78.7802 16.0609 82.6644 16.0171 86.0896 16.9809C82.1886 15.5945 77.6135 15.4889 73.1421 16.989C63.5265 20.2153 58.0324 29.6406 60.8702 38.0417C63.7079 46.4429 73.8033 50.6379 83.4183 47.4121C87.8899 45.9118 91.4697 43.0703 93.7352 39.6148C91.5921 42.4468 88.4721 44.753 84.6671 46.0295Z" fill="white"/>
<path opacity="0.4" d="M73.6703 20.0719C81.4353 17.4669 89.5875 20.8547 91.8793 27.6392C94.1708 34.4237 89.734 42.0356 81.969 44.6406C78.711 45.7336 75.385 45.7711 72.452 44.946C75.7923 46.133 79.71 46.2235 83.5388 44.9388C91.7723 42.1766 96.4767 34.1056 94.0469 26.912C91.6171 19.7184 82.9728 16.126 74.7393 18.8885C70.9102 20.1731 67.8453 22.6061 65.9053 25.565C67.7405 23.1398 70.4118 21.1651 73.6703 20.0719Z" fill="white"/>
<path opacity="0.4" d="M82.3949 42.7506C75.6223 45.023 68.5116 42.0677 66.5127 36.1502C64.5138 30.2328 68.3839 23.5937 75.1567 21.3216C75.5005 21.2062 75.8456 21.1048 76.1907 21.0159C75.3874 21.1444 74.5799 21.3403 73.7772 21.6098C66.9054 23.9154 62.9787 30.6513 65.0065 36.6556C67.0347 42.6598 74.2498 45.6581 81.1216 43.3526C81.9243 43.0834 82.6863 42.7525 83.404 42.3707C83.0753 42.508 82.7392 42.6352 82.3949 42.7506V42.7506Z" fill="white"/>
<path d="M71.1101 15.0104C71.1101 15.0104 68.5096 9.37884 71.5376 6.50938C74.566 3.63992 76.239 2.57907 76.9115 0C76.9115 0 84.6491 9.43449 72.9401 15.623C72.9401 15.623 70.9698 9.74994 75.2623 6.52206C75.2623 6.52206 70.5076 8.00516 71.1101 15.0104Z" fill="white"/>
<path opacity="0.4" d="M68.8904 16.1625C68.8904 16.1625 67.951 11.9386 65.0529 11.6176C62.1547 11.2962 60.7757 11.4104 59.3098 10.2601C59.3098 10.2601 59.0044 18.7578 68.1327 17.2729C68.1327 17.2729 66.7406 13.18 62.9881 13.1909C62.9881 13.1909 66.2586 12.0157 68.8904 16.1625Z" fill="white"/>
<path d="M0 70.8421L4.1123 70.4437C4.3598 71.8193 4.85956 72.8296 5.61158 73.4748C6.37312 74.1199 7.39644 74.4424 8.68153 74.4424C10.0428 74.4424 11.0661 74.1578 11.7515 73.5886C12.4464 73.0099 12.7938 72.3363 12.7938 71.5679C12.7938 71.0746 12.6463 70.6571 12.3512 70.3156C12.0656 69.9646 11.5611 69.661 10.8376 69.4049C10.3426 69.2341 9.21461 68.9305 7.45355 68.4941C5.18798 67.9344 3.59827 67.2466 2.68442 66.4307C1.39933 65.2828 0.756778 63.8834 0.756778 62.2327C0.756778 61.1702 1.05663 60.1788 1.65634 59.2586C2.26557 58.3288 3.13658 57.6221 4.26937 57.1382C5.41168 56.6544 6.78721 56.4125 8.39595 56.4125C11.0233 56.4125 12.9985 56.9864 14.3217 58.1344C15.6544 59.2823 16.354 60.8144 16.4207 62.7308L12.1941 62.9158C12.0133 61.8438 11.623 61.0753 11.0233 60.6104C10.4331 60.1361 9.54302 59.8989 8.35312 59.8989C7.12514 59.8989 6.1637 60.1503 5.46879 60.6531C5.02139 60.9757 4.79769 61.4074 4.79769 61.9481C4.79769 62.4414 5.00711 62.8636 5.42596 63.2146C5.95903 63.6605 7.25365 64.1254 9.3098 64.6092C11.366 65.093 12.8843 65.5958 13.8647 66.1176C14.8547 66.6299 15.6258 67.3367 16.1779 68.238C16.7396 69.1297 17.0204 70.235 17.0204 71.5536C17.0204 72.749 16.6872 73.8685 16.0209 74.912C15.3545 75.9556 14.4121 76.7335 13.1936 77.2458C11.9752 77.7486 10.4569 78 8.63869 78C5.99235 78 3.96 77.3929 2.54163 76.1785C1.12327 74.9547 0.276057 73.1759 0 70.8421Z" fill="white"/>
<path d="M24.5453 56.7682V64.4384C25.8399 62.93 27.3868 62.1758 29.1859 62.1758C30.1093 62.1758 30.9422 62.3466 31.6847 62.6881C32.4272 63.0296 32.9841 63.466 33.3554 63.9973C33.7361 64.5286 33.9931 65.1167 34.1264 65.7619C34.2692 66.407 34.3406 67.4078 34.3406 68.7645V77.63H30.3282V69.6468C30.3282 68.0624 30.2521 67.0568 30.0998 66.6299C29.9475 66.203 29.6762 65.8662 29.2859 65.6196C28.9051 65.3634 28.4244 65.2353 27.8437 65.2353C27.1774 65.2353 26.5824 65.3966 26.0589 65.7192C25.5353 66.0417 25.1498 66.5303 24.9023 67.1849C24.6643 67.83 24.5453 68.7882 24.5453 70.0594V77.63H20.533V56.7682H24.5453Z" fill="white"/>
<path d="M38.4243 60.4681V56.7682H42.4367V60.4681H38.4243ZM38.4243 77.63V62.5173H42.4367V77.63H38.4243Z" fill="white"/>
<path d="M50.4043 77.63H46.3919V62.5173H50.1187V64.6661C50.7565 63.651 51.3276 62.9822 51.8322 62.6596C52.3462 62.3371 52.9269 62.1758 53.5742 62.1758C54.488 62.1758 55.3686 62.4272 56.2158 62.93L54.9735 66.4165C54.2976 65.9801 53.6694 65.7619 53.0887 65.7619C52.5271 65.7619 52.0511 65.9184 51.6608 66.2315C51.2705 66.535 50.9612 67.09 50.7327 67.8964C50.5138 68.7028 50.4043 70.3915 50.4043 72.9625V77.63Z" fill="white"/>
<path d="M57.9578 60.4681V56.7682H61.9701V60.4681H57.9578ZM57.9578 77.63V62.5173H61.9701V77.63H57.9578Z" fill="white"/>
<path d="M79.8901 77.63H75.8777V69.9171C75.8777 68.2854 75.792 67.2323 75.6207 66.758C75.4494 66.2742 75.1685 65.8994 74.7783 65.6338C74.3975 65.3682 73.9358 65.2353 73.3932 65.2353C72.6983 65.2353 72.0748 65.4251 71.5227 65.8046C70.9706 66.184 70.5898 66.6868 70.3804 67.313C70.1805 67.9391 70.0805 69.0965 70.0805 70.7852V77.63H66.0682V62.5173H69.7949V64.7373C71.1181 63.0296 72.784 62.1758 74.7925 62.1758C75.6778 62.1758 76.4869 62.3371 77.2199 62.6596C77.9529 62.9727 78.505 63.3759 78.8763 63.8692C79.257 64.3625 79.5188 64.9223 79.6616 65.5484C79.8139 66.1745 79.8901 67.0711 79.8901 68.238V77.63Z" fill="white"/>
<path d="M83.876 77.63V56.7682H90.2015L93.9997 70.9986L97.755 56.7682H104.095V77.63H100.168V61.2081L96.013 77.63H91.9435L87.8027 61.2081V77.63H83.876Z" fill="white"/>
<path d="M117.046 72.8201L121.044 73.4889C120.53 74.9499 119.716 76.0646 118.602 76.8331C117.498 77.592 116.113 77.9715 114.447 77.9715C111.81 77.9715 109.859 77.1129 108.593 75.3958C107.593 74.0202 107.093 72.2841 107.093 70.1875C107.093 67.6829 107.75 65.7239 109.064 64.3103C110.377 62.8873 112.039 62.1757 114.047 62.1757C116.303 62.1757 118.083 62.9205 119.387 64.4099C120.692 65.8899 121.315 68.162 121.258 71.2263H111.206C111.234 72.4122 111.558 73.3371 112.177 74.0012C112.795 74.6558 113.566 74.9831 114.49 74.9831C115.118 74.9831 115.646 74.8124 116.075 74.4708C116.503 74.1293 116.827 73.5791 117.046 72.8201ZM117.274 68.7787C117.246 67.6213 116.946 66.7437 116.375 66.146C115.803 65.5389 115.109 65.2353 114.29 65.2353C113.414 65.2353 112.691 65.5531 112.12 66.1887C111.548 66.8244 111.268 67.6877 111.277 68.7787H117.274Z" fill="white"/>
<path d="M128.712 77.63L122.6 62.5173H126.812L129.668 70.2302L130.496 72.8059C130.715 72.1513 130.853 71.7196 130.91 71.5109C131.044 71.084 131.187 70.6571 131.339 70.2302L134.223 62.5173H138.35L132.324 77.63H128.712Z" fill="white"/>
<path d="M143.819 67.1279L140.177 66.4733C140.587 65.0123 141.291 63.9308 142.291 63.2288C143.29 62.5268 144.775 62.1757 146.746 62.1757C148.535 62.1757 149.868 62.3892 150.744 62.8161C151.62 63.2335 152.234 63.7696 152.586 64.4242C152.947 65.0693 153.128 66.2599 153.128 67.996L153.085 72.6636C153.085 73.9917 153.147 74.9736 153.271 75.6093C153.404 76.2354 153.647 76.909 153.999 77.63H150.03C149.925 77.3643 149.797 76.9706 149.644 76.4489C149.578 76.2117 149.53 76.0552 149.501 75.9793C148.816 76.6433 148.083 77.1414 147.303 77.4734C146.522 77.8055 145.689 77.9715 144.804 77.9715C143.243 77.9715 142.01 77.5493 141.106 76.705C140.211 75.8607 139.763 74.7934 139.763 73.5032C139.763 72.6493 139.968 71.8904 140.377 71.2263C140.787 70.5527 141.358 70.0404 142.091 69.6894C142.833 69.3289 143.899 69.0158 145.289 68.7502C147.165 68.3992 148.464 68.0719 149.187 67.7683V67.3699C149.187 66.6014 148.997 66.0559 148.616 65.7334C148.235 65.4013 147.517 65.2353 146.46 65.2353C145.746 65.2353 145.189 65.3776 144.789 65.6622C144.39 65.9373 144.066 66.4259 143.819 67.1279ZM149.187 70.3725C148.673 70.5432 147.859 70.7472 146.746 70.9844C145.632 71.2216 144.904 71.454 144.561 71.6817C144.037 72.0517 143.776 72.5213 143.776 73.0905C143.776 73.6502 143.985 74.134 144.404 74.542C144.823 74.9499 145.356 75.1539 146.003 75.1539C146.727 75.1539 147.417 74.9167 148.074 74.4424C148.559 74.0819 148.878 73.6407 149.03 73.1189C149.135 72.7774 149.187 72.1276 149.187 71.1694V70.3725Z" fill="white"/>
</svg>
