<svg width="343" height="48" viewBox="0 0 343 48" fill="none" xmlns="http://www.w3.org/2000/svg">
<rect x="0.5" y="0.5" width="342" height="47" rx="7.5" fill="#8FDA38" fill-opacity="0.1"/>
<path d="M121 20H121.01" stroke="#439C3B" stroke-width="2" stroke-linecap="round" stroke-linejoin="round"/>
<rect x="110" y="16" width="16" height="16" rx="3" stroke="#439C3B" stroke-width="2" stroke-linecap="round" stroke-linejoin="round"/>
<path d="M110 27L114 23C114.928 22.1068 116.072 22.1068 117 23L122 28" stroke="#439C3B" stroke-width="2" stroke-linecap="round" stroke-linejoin="round"/>
<path d="M120 26L121 25C121.928 24.1068 123.072 24.1068 124 25L126 27" stroke="#439C3B" stroke-width="2" stroke-linecap="round" stroke-linejoin="round"/>
<path d="M139.278 29.5V17.8636H143.426C144.331 17.8636 145.081 18.0284 145.676 18.358C146.271 18.6875 146.716 19.1383 147.011 19.7102C147.307 20.2784 147.455 20.9186 147.455 21.6307C147.455 22.3466 147.305 22.9905 147.006 23.5625C146.71 24.1307 146.263 24.5814 145.665 24.9148C145.07 25.2443 144.322 25.4091 143.42 25.4091H140.568V23.9205H143.261C143.833 23.9205 144.297 23.822 144.653 23.625C145.009 23.4242 145.271 23.1515 145.438 22.8068C145.604 22.4621 145.688 22.0701 145.688 21.6307C145.688 21.1913 145.604 20.8011 145.438 20.4602C145.271 20.1193 145.008 19.8523 144.648 19.6591C144.292 19.4659 143.822 19.3693 143.239 19.3693H141.034V29.5H139.278ZM151.838 29.6932C151.285 29.6932 150.785 29.5909 150.338 29.3864C149.891 29.178 149.537 28.8769 149.276 28.483C149.018 28.089 148.889 27.6061 148.889 27.0341C148.889 26.5417 148.984 26.1364 149.173 25.8182C149.363 25.5 149.618 25.2481 149.94 25.0625C150.262 24.8769 150.622 24.7367 151.02 24.642C151.418 24.5473 151.823 24.4754 152.236 24.4261C152.759 24.3655 153.183 24.3163 153.509 24.2784C153.834 24.2367 154.071 24.1705 154.219 24.0795C154.366 23.9886 154.44 23.8409 154.44 23.6364V23.5966C154.44 23.1004 154.3 22.7159 154.02 22.4432C153.743 22.1705 153.33 22.0341 152.781 22.0341C152.209 22.0341 151.759 22.161 151.429 22.4148C151.103 22.6648 150.878 22.9432 150.753 23.25L149.156 22.8864C149.346 22.3561 149.622 21.928 149.986 21.6023C150.353 21.2727 150.776 21.0341 151.253 20.8864C151.73 20.7348 152.232 20.6591 152.759 20.6591C153.107 20.6591 153.476 20.7008 153.866 20.7841C154.26 20.8636 154.628 21.0114 154.969 21.2273C155.313 21.4432 155.596 21.7519 155.815 22.1534C156.035 22.5511 156.145 23.0682 156.145 23.7045V29.5H154.486V28.3068H154.418C154.308 28.5265 154.143 28.7424 153.923 28.9545C153.704 29.1667 153.421 29.3428 153.077 29.483C152.732 29.6231 152.319 29.6932 151.838 29.6932ZM152.207 28.3295C152.677 28.3295 153.079 28.2367 153.412 28.0511C153.749 27.8655 154.005 27.6231 154.179 27.3239C154.357 27.0208 154.446 26.697 154.446 26.3523V25.2273C154.385 25.2879 154.268 25.3447 154.094 25.3977C153.923 25.447 153.728 25.4905 153.509 25.5284C153.289 25.5625 153.075 25.5947 152.866 25.625C152.658 25.6515 152.484 25.6742 152.344 25.6932C152.014 25.7348 151.713 25.8049 151.44 25.9034C151.171 26.0019 150.955 26.1439 150.793 26.3295C150.634 26.5114 150.554 26.7538 150.554 27.0568C150.554 27.4773 150.709 27.7955 151.02 28.0114C151.33 28.2235 151.726 28.3295 152.207 28.3295ZM162.084 29.6761C161.239 29.6761 160.512 29.4848 159.902 29.1023C159.296 28.7159 158.83 28.1837 158.504 27.5057C158.179 26.8277 158.016 26.0511 158.016 25.1761C158.016 24.2898 158.182 23.5076 158.516 22.8295C158.849 22.1477 159.319 21.6155 159.925 21.233C160.531 20.8504 161.245 20.6591 162.067 20.6591C162.73 20.6591 163.321 20.7822 163.839 21.0284C164.358 21.2708 164.777 21.6117 165.095 22.0511C165.417 22.4905 165.608 23.0038 165.669 23.5909H164.016C163.925 23.1818 163.716 22.8295 163.391 22.5341C163.069 22.2386 162.637 22.0909 162.095 22.0909C161.622 22.0909 161.207 22.2159 160.851 22.4659C160.499 22.7121 160.224 23.0644 160.027 23.5227C159.83 23.9773 159.732 24.5152 159.732 25.1364C159.732 25.7727 159.828 26.322 160.021 26.7841C160.214 27.2462 160.487 27.6042 160.839 27.858C161.196 28.1117 161.614 28.2386 162.095 28.2386C162.417 28.2386 162.709 28.1799 162.97 28.0625C163.235 27.9413 163.457 27.7689 163.635 27.5455C163.817 27.322 163.944 27.053 164.016 26.7386H165.669C165.608 27.303 165.425 27.8068 165.118 28.25C164.811 28.6932 164.4 29.0417 163.885 29.2955C163.374 29.5492 162.773 29.6761 162.084 29.6761ZM172.384 27.3977L175.202 20.7727H176.668L173.014 29.5H171.753L168.173 20.7727H169.622L172.384 27.3977ZM169.151 20.7727V29.5H167.486V20.7727H169.151ZM175.662 29.5V20.7727H177.315V29.5H175.662ZM188.206 24.4659V25.9432H183.553V24.4659H188.206ZM184.933 20.7727V29.5H183.234V20.7727H184.933ZM190.865 29.6761C190.054 29.6761 189.346 29.4867 188.74 29.108C188.134 28.7292 187.664 28.2027 187.331 27.5284C186.998 26.8504 186.831 26.0644 186.831 25.1705C186.831 24.2689 186.998 23.4811 187.331 22.8068C187.664 22.1288 188.134 21.6023 188.74 21.2273C189.346 20.8485 190.054 20.6591 190.865 20.6591C191.679 20.6591 192.388 20.8485 192.99 21.2273C193.596 21.6023 194.066 22.1288 194.399 22.8068C194.736 23.4811 194.905 24.2689 194.905 25.1705C194.905 26.0644 194.736 26.8504 194.399 27.5284C194.066 28.2027 193.596 28.7292 192.99 29.108C192.388 29.4867 191.679 29.6761 190.865 29.6761ZM190.865 28.2216C191.414 28.2216 191.863 28.0833 192.212 27.8068C192.564 27.5265 192.823 27.1553 192.99 26.6932C193.157 26.2311 193.24 25.7235 193.24 25.1705C193.24 24.6136 193.157 24.1042 192.99 23.642C192.823 23.1761 192.564 22.803 192.212 22.5227C191.863 22.2424 191.414 22.1023 190.865 22.1023C190.32 22.1023 189.871 22.2424 189.518 22.5227C189.166 22.803 188.907 23.1761 188.74 23.642C188.573 24.1042 188.49 24.6136 188.49 25.1705C188.49 25.7235 188.573 26.2311 188.74 26.6932C188.907 27.1553 189.166 27.5265 189.518 27.8068C189.871 28.0833 190.32 28.2216 190.865 28.2216ZM196.908 29.5V20.7727H198.607V24.4318H199.425L202.305 20.7727H204.408L201.027 25.017L204.447 29.5H202.339L199.709 26.0114H198.607V29.5H196.908ZM205.08 29.5L205.074 28.0284H205.386C205.629 28.0284 205.831 27.9773 205.994 27.875C206.161 27.7689 206.297 27.5909 206.403 27.3409C206.509 27.0909 206.591 26.7462 206.648 26.3068C206.705 25.8636 206.746 25.3068 206.773 24.6364L206.926 20.7727H213.017V29.5H211.352V22.2386H208.5L208.364 25.2045C208.33 25.9242 208.256 26.553 208.142 27.0909C208.032 27.6288 207.871 28.0777 207.659 28.4375C207.447 28.7936 207.174 29.0606 206.841 29.2386C206.508 29.4129 206.102 29.5 205.625 29.5H205.08ZM217.822 29.6932C217.269 29.6932 216.769 29.5909 216.322 29.3864C215.875 29.178 215.521 28.8769 215.26 28.483C215.002 28.089 214.874 27.6061 214.874 27.0341C214.874 26.5417 214.968 26.1364 215.158 25.8182C215.347 25.5 215.603 25.2481 215.925 25.0625C216.247 24.8769 216.607 24.7367 217.004 24.642C217.402 24.5473 217.807 24.4754 218.22 24.4261C218.743 24.3655 219.167 24.3163 219.493 24.2784C219.819 24.2367 220.055 24.1705 220.203 24.0795C220.351 23.9886 220.425 23.8409 220.425 23.6364V23.5966C220.425 23.1004 220.285 22.7159 220.004 22.4432C219.728 22.1705 219.315 22.0341 218.766 22.0341C218.194 22.0341 217.743 22.161 217.413 22.4148C217.088 22.6648 216.862 22.9432 216.737 23.25L215.141 22.8864C215.33 22.3561 215.607 21.928 215.97 21.6023C216.338 21.2727 216.76 21.0341 217.237 20.8864C217.714 20.7348 218.216 20.6591 218.743 20.6591C219.091 20.6591 219.461 20.7008 219.851 20.7841C220.245 20.8636 220.612 21.0114 220.953 21.2273C221.298 21.4432 221.58 21.7519 221.8 22.1534C222.019 22.5511 222.129 23.0682 222.129 23.7045V29.5H220.47V28.3068H220.402C220.292 28.5265 220.127 28.7424 219.908 28.9545C219.688 29.1667 219.406 29.3428 219.061 29.483C218.716 29.6231 218.304 29.6932 217.822 29.6932ZM218.192 28.3295C218.661 28.3295 219.063 28.2367 219.396 28.0511C219.733 27.8655 219.989 27.6231 220.163 27.3239C220.341 27.0208 220.43 26.697 220.43 26.3523V25.2273C220.37 25.2879 220.252 25.3447 220.078 25.3977C219.908 25.447 219.713 25.4905 219.493 25.5284C219.273 25.5625 219.059 25.5947 218.851 25.625C218.643 25.6515 218.468 25.6742 218.328 25.6932C217.999 25.7348 217.697 25.8049 217.425 25.9034C217.156 26.0019 216.94 26.1439 216.777 26.3295C216.618 26.5114 216.538 26.7538 216.538 27.0568C216.538 27.4773 216.694 27.7955 217.004 28.0114C217.315 28.2235 217.711 28.3295 218.192 28.3295ZM224.392 20.7727H226.057V28.0284H229.074V20.7727H230.739V28.0284H233.756V20.7727H235.42V29.5H224.392V20.7727Z" fill="#439C3B"/>
<rect x="0.5" y="0.5" width="342" height="47" rx="7.5" stroke="#8FDA38" stroke-dasharray="7 7"/>
</svg>
